solid Extrude (Meshed)
  facet normal -0.209976 0.000000 0.977706
    outer loop
      vertex 5396.882812 500.000000 300.000000
      vertex 4000.000000 500.000000 -0.000000
      vertex 4000.000000 -500.000000 0.000000
    endloop
  endfacet
  facet normal -0.209976 0.000000 0.977706
    outer loop
      vertex 5396.882812 500.000000 300.000000
      vertex 4000.000000 -500.000000 0.000000
      vertex 5396.882812 -500.000000 300.000000
    endloop
  endfacet
  facet normal 0.000000 0.000000 1.000000
    outer loop
      vertex 5396.882812 500.000000 300.000000
      vertex 5396.882812 -500.000000 300.000000
      vertex 5500.000000 -500.000000 300.000000
    endloop
  endfacet
  facet normal 0.000000 0.000000 1.000000
    outer loop
      vertex 5500.000000 500.000000 300.000000
      vertex 5396.882812 500.000000 300.000000
      vertex 5500.000000 -500.000000 300.000000
    endloop
  endfacet
  facet normal 1.000000 0.000000 -0.000000
    outer loop
      vertex 5500.000000 500.000000 -0.000000
      vertex 5500.000000 500.000000 300.000000
      vertex 5500.000000 -500.000000 300.000000
    endloop
  endfacet
  facet normal 1.000000 0.000000 0.000000
    outer loop
      vertex 5500.000000 500.000000 -0.000000
      vertex 5500.000000 -500.000000 300.000000
      vertex 5500.000000 -500.000000 0.000000
    endloop
  endfacet
  facet normal 0.000000 -0.000000 -1.000000
    outer loop
      vertex 4000.000000 500.000000 -0.000000
      vertex 5500.000000 500.000000 -0.000000
      vertex 5500.000000 -500.000000 0.000000
    endloop
  endfacet
  facet normal 0.000000 -0.000000 -1.000000
    outer loop
      vertex 4000.000000 500.000000 -0.000000
      vertex 5500.000000 -500.000000 0.000000
      vertex 4000.000000 -500.000000 0.000000
    endloop
  endfacet
  facet normal 0.000000 1.000000 0.000000
    outer loop
      vertex 5396.882812 500.000000 300.000000
      vertex 5500.000000 500.000000 -0.000000
      vertex 4000.000000 500.000000 -0.000000
    endloop
  endfacet
  facet normal 0.000000 1.000000 0.000000
    outer loop
      vertex 5500.000000 500.000000 300.000000
      vertex 5500.000000 500.000000 -0.000000
      vertex 5396.882812 500.000000 300.000000
    endloop
  endfacet
  facet normal 0.000000 -1.000000 0.000000
    outer loop
      vertex 5500.000000 -500.000000 0.000000
      vertex 5396.882812 -500.000000 300.000000
      vertex 4000.000000 -500.000000 0.000000
    endloop
  endfacet
  facet normal 0.000000 -1.000000 0.000000
    outer loop
      vertex 5500.000000 -500.000000 0.000000
      vertex 5500.000000 -500.000000 300.000000
      vertex 5396.882812 -500.000000 300.000000
    endloop
  endfacet
endsolid Mesh
