solid Extrude(Meshed)
  facet normal -0.209976 0 0.977707
    outer loop
       vertex 5.39688 0.5 0.3
       vertex 4 0.5 -0
       vertex 4 -0.5 0
    endloop
  endfacet
  facet normal -0.209976 0 0.977707
    outer loop
       vertex 5.39688 0.5 0.3
       vertex 4 -0.5 0
       vertex 5.39688 -0.5 0.3
    endloop
  endfacet
  facet normal 0 0 1
    outer loop
       vertex 5.39688 0.5 0.3
       vertex 5.39688 -0.5 0.3
       vertex 5.5 -0.5 0.3
    endloop
  endfacet
  facet normal 0 0 1
    outer loop
       vertex 5.5 0.5 0.3
       vertex 5.39688 0.5 0.3
       vertex 5.5 -0.5 0.3
    endloop
  endfacet
  facet normal 1 0 -0
    outer loop
       vertex 5.5 0.5 -0
       vertex 5.5 0.5 0.3
       vertex 5.5 -0.5 0.3
    endloop
  endfacet
  facet normal 1 0 0
    outer loop
       vertex 5.5 0.5 -0
       vertex 5.5 -0.5 0.3
       vertex 5.5 -0.5 0
    endloop
  endfacet
  facet normal 0 0 -1
    outer loop
       vertex 4 0.5 -0
       vertex 5.5 0.5 -0
       vertex 5.5 -0.5 0
    endloop
  endfacet
  facet normal 0 0 -1
    outer loop
       vertex 4 0.5 -0
       vertex 5.5 -0.5 0
       vertex 4 -0.5 0
    endloop
  endfacet
  facet normal 0 1 0
    outer loop
       vertex 5.39688 0.5 0.3
       vertex 5.5 0.5 -0
       vertex 4 0.5 -0
    endloop
  endfacet
  facet normal 0 1 0
    outer loop
       vertex 5.5 0.5 0.3
       vertex 5.5 0.5 -0
       vertex 5.39688 0.5 0.3
    endloop
  endfacet
  facet normal 0 -1 0
    outer loop
       vertex 5.5 -0.5 0
       vertex 5.39688 -0.5 0.3
       vertex 4 -0.5 0
    endloop
  endfacet
  facet normal 0 -1 0
    outer loop
       vertex 5.5 -0.5 0
       vertex 5.5 -0.5 0.3
       vertex 5.39688 -0.5 0.3
    endloop
  endfacet
endsolid Extrude(Meshed)
